<svg width="1024" height="1024" viewBox="0 0 1024 1024" fill="none" xmlns="http://www.w3.org/2000/svg">
  <!-- Background -->
  <rect width="1024" height="1024" fill="#06B6D4" rx="180"/>
  
  <!-- White circle background -->
  <circle cx="512" cy="512" r="380" fill="white"/>
  
  <!-- RRRAY Logo Text -->
  <text x="512" y="580" font-family="Arial, sans-serif" font-size="180" font-weight="900" fill="#06B6D4" text-anchor="middle">RRRAY</text>
  
  <!-- Subtitle -->
  <text x="512" y="680" font-family="Arial, sans-serif" font-size="60" font-weight="600" fill="#0891B2" text-anchor="middle">Learn • Play • Shine</text>
  
  <!-- Decorative stars -->
  <path d="M350 380 L365 410 L395 410 L370 430 L385 460 L350 440 L315 460 L330 430 L305 410 L335 410 Z" fill="#FBBF24"/>
  <path d="M674 380 L689 410 L719 410 L694 430 L709 460 L674 440 L639 460 L654 430 L629 410 L659 410 Z" fill="#FBBF24"/>
  <path d="M512 280 L527 310 L557 310 L532 330 L547 360 L512 340 L477 360 L492 330 L467 310 L497 310 Z" fill="#F59E0B"/>
</svg>