<svg width="1284" height="2778" viewBox="0 0 1284 2778" fill="none" xmlns="http://www.w3.org/2000/svg">
  <!-- Gradient Background -->
  <defs>
    <linearGradient id="bg" x1="0%" y1="0%" x2="0%" y2="100%">
      <stop offset="0%" style="stop-color:#06B6D4;stop-opacity:1" />
      <stop offset="100%" style="stop-color:#0891B2;stop-opacity:1" />
    </linearGradient>
  </defs>
  <rect width="1284" height="2778" fill="url(#bg)"/>
  
  <!-- Decorative circles -->
  <circle cx="200" cy="400" r="80" fill="#FBBF24" opacity="0.2"/>
  <circle cx="1084" cy="600" r="60" fill="#F59E0B" opacity="0.2"/>
  <circle cx="150" cy="2200" r="100" fill="#FBBF24" opacity="0.15"/>
  <circle cx="1100" cy="2400" r="70" fill="#F59E0B" opacity="0.15"/>
  
  <!-- Center logo area -->
  <circle cx="642" cy="1389" r="280" fill="white" opacity="0.95"/>
  
  <!-- RRRAY Logo -->
  <text x="642" y="1440" font-family="Arial, sans-serif" font-size="140" font-weight="900" fill="#06B6D4" text-anchor="middle">RRRAY</text>
  
  <!-- Tagline -->
  <text x="642" y="1520" font-family="Arial, sans-serif" font-size="48" font-weight="600" fill="#0891B2" text-anchor="middle">Learn • Play • Shine</text>
  
  <!-- Decorative stars around logo -->
  <path d="M400 1200 L415 1230 L445 1230 L420 1250 L435 1280 L400 1260 L365 1280 L380 1250 L355 1230 L385 1230 Z" fill="#FBBF24"/>
  <path d="M884 1200 L899 1230 L929 1230 L904 1250 L919 1280 L884 1260 L849 1280 L864 1250 L839 1230 L869 1230 Z" fill="#FBBF24"/>
  <path d="M642 1050 L657 1080 L687 1080 L662 1100 L677 1130 L642 1110 L607 1130 L622 1100 L597 1080 L627 1080 Z" fill="#F59E0B"/>
  <path d="M642 1650 L657 1680 L687 1680 L662 1700 L677 1730 L642 1710 L607 1730 L622 1700 L597 1680 L627 1680 Z" fill="#F59E0B"/>
</svg>